<mxfile host="65bd71144e">
    <diagram id="Pwh17KiYS3t1jNNCGKba" name="Page-1">
        <mxGraphModel dx="3407" dy="1320" grid="1" gridSize="10" guides="1" tooltips="1" connect="1" arrows="1" fold="1" page="1" pageScale="1" pageWidth="1600" pageHeight="1200" background="#E3D3D8" math="0" shadow="0">
            <root>
                <mxCell id="0"/>
                <mxCell id="1" parent="0"/>
                <mxCell id="128" value="" style="rounded=1;whiteSpace=wrap;html=1;shadow=0;strokeWidth=3;fontColor=#000000;opacity=70;" parent="1" vertex="1">
                    <mxGeometry x="-559.41" y="735" width="278.83" height="235" as="geometry"/>
                </mxCell>
                <mxCell id="58" value="" style="rounded=1;whiteSpace=wrap;html=1;shadow=0;strokeWidth=3;fontColor=#000000;opacity=70;" parent="1" vertex="1">
                    <mxGeometry x="-1021" y="321" width="450.87" height="380" as="geometry"/>
                </mxCell>
                <mxCell id="67" value="&lt;font style=&quot;font-size: 30px;&quot; color=&quot;#000000&quot;&gt;Login Functionality&lt;br&gt;&lt;/font&gt;" style="text;html=1;align=center;verticalAlign=middle;resizable=0;points=[];autosize=1;strokeColor=none;fillColor=#d8c9ce;shadow=0;strokeWidth=3;fontStyle=1" parent="1" vertex="1">
                    <mxGeometry x="-945" y="251" width="300" height="50" as="geometry"/>
                </mxCell>
                <mxCell id="81" value="Actor" style="shape=umlActor;verticalLabelPosition=bottom;verticalAlign=top;html=1;outlineConnect=0;strokeColor=#000000;strokeWidth=4;fontColor=#000000;" parent="1" vertex="1">
                    <mxGeometry x="-1270" y="515" width="110" height="220" as="geometry"/>
                </mxCell>
                <mxCell id="85" value="Send request&lt;br&gt;(must send username or email)" style="rounded=0;whiteSpace=wrap;html=1;strokeColor=none;strokeWidth=4;" parent="1" vertex="1">
                    <mxGeometry x="-925.5699999999999" y="381" width="260" height="60" as="geometry"/>
                </mxCell>
                <mxCell id="87" value="" style="shape=flexArrow;endArrow=classic;html=1;fillColor=default;endWidth=11;endSize=6.63;width=8;" parent="1" edge="1">
                    <mxGeometry width="50" height="50" relative="1" as="geometry">
                        <mxPoint x="-796.07" y="451" as="sourcePoint"/>
                        <mxPoint x="-795.57" y="491" as="targetPoint"/>
                    </mxGeometry>
                </mxCell>
                <mxCell id="94" value="" style="shape=flexArrow;endArrow=classic;html=1;fillColor=default;endWidth=11;endSize=6.63;width=8;" parent="1" edge="1">
                    <mxGeometry width="50" height="50" relative="1" as="geometry">
                        <mxPoint x="-796.07" y="571" as="sourcePoint"/>
                        <mxPoint x="-795.57" y="611" as="targetPoint"/>
                    </mxGeometry>
                </mxCell>
                <mxCell id="97" value="Encrypt password and auth with DB" style="rounded=0;whiteSpace=wrap;html=1;strokeColor=none;strokeWidth=4;" parent="1" vertex="1">
                    <mxGeometry x="-925.5699999999999" y="501" width="260" height="60" as="geometry"/>
                </mxCell>
                <mxCell id="98" value="Create session" style="rounded=0;whiteSpace=wrap;html=1;strokeColor=none;strokeWidth=4;" parent="1" vertex="1">
                    <mxGeometry x="-925.5699999999999" y="621" width="260" height="60" as="geometry"/>
                </mxCell>
                <mxCell id="101" value="&lt;b&gt;Log in&lt;br&gt;&lt;/b&gt;" style="text;html=1;align=center;verticalAlign=middle;resizable=0;points=[];autosize=1;strokeColor=none;fillColor=#999999;fontColor=#000000;labelBackgroundColor=none;labelBorderColor=none;" parent="1" vertex="1">
                    <mxGeometry x="-825.57" y="331" width="60" height="30" as="geometry"/>
                </mxCell>
                <mxCell id="103" value="" style="rounded=1;whiteSpace=wrap;html=1;shadow=0;strokeWidth=3;fontColor=#000000;opacity=70;" parent="1" vertex="1">
                    <mxGeometry x="-1460" y="231" width="370.87" height="200" as="geometry"/>
                </mxCell>
                <mxCell id="106" value="&lt;b&gt;Security&lt;br&gt;LoginFilter&lt;br&gt;&lt;/b&gt;" style="text;html=1;align=center;verticalAlign=middle;resizable=0;points=[];autosize=1;strokeColor=none;fillColor=#999999;fontColor=#000000;labelBackgroundColor=none;labelBorderColor=none;" parent="1" vertex="1">
                    <mxGeometry x="-1319.56" y="241" width="90" height="40" as="geometry"/>
                </mxCell>
                <mxCell id="108" value="if get Session" style="rounded=0;whiteSpace=wrap;html=1;strokeColor=none;strokeWidth=4;" parent="1" vertex="1">
                    <mxGeometry x="-1418.91" y="301" width="94.56" height="60" as="geometry"/>
                </mxCell>
                <mxCell id="109" value="" style="shape=flexArrow;endArrow=classic;html=1;fillColor=default;endWidth=11;endSize=6.63;width=8;" parent="1" edge="1">
                    <mxGeometry width="50" height="50" relative="1" as="geometry">
                        <mxPoint x="-1314.3500000000001" y="330.5" as="sourcePoint"/>
                        <mxPoint x="-1234.35" y="330.5" as="targetPoint"/>
                    </mxGeometry>
                </mxCell>
                <mxCell id="111" value="redirect to&lt;br&gt;main-dashboard" style="rounded=0;whiteSpace=wrap;html=1;strokeColor=none;strokeWidth=4;" parent="1" vertex="1">
                    <mxGeometry x="-1224.79" y="301" width="94.56" height="60" as="geometry"/>
                </mxCell>
                <mxCell id="113" value="" style="shape=flexArrow;endArrow=classic;html=1;fillColor=default;endWidth=24;endSize=15;" parent="1" edge="1">
                    <mxGeometry width="50" height="50" relative="1" as="geometry">
                        <mxPoint x="-1140" y="591" as="sourcePoint"/>
                        <mxPoint x="-950.23" y="411" as="targetPoint"/>
                        <Array as="points">
                            <mxPoint x="-1060" y="591"/>
                            <mxPoint x="-1060.23" y="411"/>
                        </Array>
                    </mxGeometry>
                </mxCell>
                <mxCell id="114" value="" style="shape=flexArrow;endArrow=classic;html=1;fillColor=default;endWidth=24;endSize=15;" parent="1" edge="1">
                    <mxGeometry width="50" height="50" relative="1" as="geometry">
                        <mxPoint x="-645" y="651" as="sourcePoint"/>
                        <mxPoint x="-430" y="531" as="targetPoint"/>
                        <Array as="points">
                            <mxPoint x="-535" y="651"/>
                            <mxPoint x="-535" y="531"/>
                        </Array>
                    </mxGeometry>
                </mxCell>
                <mxCell id="116" value="redirect to&lt;br&gt;main-dashboard" style="rounded=0;whiteSpace=wrap;html=1;strokeColor=none;strokeWidth=4;" parent="1" vertex="1">
                    <mxGeometry x="-400" y="501" width="94.56" height="60" as="geometry"/>
                </mxCell>
                <mxCell id="118" value="" style="shape=flexArrow;endArrow=classic;html=1;fillColor=default;endWidth=24;endSize=15;" parent="1" edge="1">
                    <mxGeometry width="50" height="50" relative="1" as="geometry">
                        <mxPoint x="-1220" y="771" as="sourcePoint"/>
                        <mxPoint x="-970" y="851" as="targetPoint"/>
                        <Array as="points">
                            <mxPoint x="-1220" y="851"/>
                        </Array>
                    </mxGeometry>
                </mxCell>
                <mxCell id="119" value="" style="rounded=1;whiteSpace=wrap;html=1;shadow=0;strokeWidth=3;fontColor=#000000;opacity=70;" parent="1" vertex="1">
                    <mxGeometry x="-930.79" y="731" width="270.44" height="210" as="geometry"/>
                </mxCell>
                <mxCell id="120" value="&lt;b&gt;Sign in&lt;br&gt;&lt;/b&gt;" style="text;html=1;align=center;verticalAlign=middle;resizable=0;points=[];autosize=1;strokeColor=none;fillColor=#999999;fontColor=#000000;labelBackgroundColor=none;labelBorderColor=none;" parent="1" vertex="1">
                    <mxGeometry x="-825.57" y="741" width="60" height="30" as="geometry"/>
                </mxCell>
                <mxCell id="122" value="redirect to&lt;br&gt;sign in" style="rounded=0;whiteSpace=wrap;html=1;strokeColor=none;strokeWidth=4;" parent="1" vertex="1">
                    <mxGeometry x="-842.85" y="806" width="94.56" height="60" as="geometry"/>
                </mxCell>
                <mxCell id="123" value="&lt;b&gt;use != /app/*&lt;br&gt;&lt;/b&gt;" style="text;html=1;align=center;verticalAlign=middle;resizable=0;points=[];autosize=1;strokeColor=none;fillColor=#999999;fontColor=#000000;labelBackgroundColor=none;labelBorderColor=none;" parent="1" vertex="1">
                    <mxGeometry x="-1324.35" y="386" width="90" height="30" as="geometry"/>
                </mxCell>
                <mxCell id="124" value="" style="shape=flexArrow;endArrow=classic;html=1;fillColor=#ED0036;strokeColor=none;endWidth=38;endSize=10.4;" parent="1" edge="1">
                    <mxGeometry width="50" height="50" relative="1" as="geometry">
                        <mxPoint x="-580" y="701" as="sourcePoint"/>
                        <mxPoint x="-500" y="801" as="targetPoint"/>
                    </mxGeometry>
                </mxCell>
                <mxCell id="126" value="Alert: &quot;Username or Password invalid&quot;" style="rounded=0;whiteSpace=wrap;html=1;" parent="1" vertex="1">
                    <mxGeometry x="-480" y="761" width="120" height="60" as="geometry"/>
                </mxCell>
                <mxCell id="127" value="OR" style="text;html=1;align=center;verticalAlign=middle;resizable=0;points=[];autosize=1;strokeColor=none;fillColor=none;fontStyle=1;fontColor=#FFFFFF;fontSize=17;" parent="1" vertex="1">
                    <mxGeometry x="-445" y="837.5" width="50" height="30" as="geometry"/>
                </mxCell>
                <mxCell id="129" value="Alert: &quot;DataBase Connection failed&quot;" style="rounded=0;whiteSpace=wrap;html=1;" parent="1" vertex="1">
                    <mxGeometry x="-479.99" y="881" width="120" height="60" as="geometry"/>
                </mxCell>
                <mxCell id="131" value="" style="shape=flexArrow;endArrow=classic;html=1;fillColor=default;endWidth=24;endSize=15;" edge="1" parent="1">
                    <mxGeometry width="50" height="50" relative="1" as="geometry">
                        <mxPoint x="-1220" y="760" as="sourcePoint"/>
                        <mxPoint x="-970" y="1090" as="targetPoint"/>
                        <Array as="points">
                            <mxPoint x="-1220" y="1090"/>
                        </Array>
                    </mxGeometry>
                </mxCell>
                <mxCell id="132" value="" style="rounded=1;whiteSpace=wrap;html=1;shadow=0;strokeWidth=3;fontColor=#000000;opacity=70;" vertex="1" parent="1">
                    <mxGeometry x="-930.2199999999999" y="950" width="270.44" height="210" as="geometry"/>
                </mxCell>
                <mxCell id="133" value="&lt;b&gt;Forgot Password&lt;br&gt;&lt;/b&gt;" style="text;html=1;align=center;verticalAlign=middle;resizable=0;points=[];autosize=1;strokeColor=none;fillColor=#999999;fontColor=#000000;labelBackgroundColor=none;labelBorderColor=none;" vertex="1" parent="1">
                    <mxGeometry x="-855" y="960" width="120" height="30" as="geometry"/>
                </mxCell>
                <mxCell id="134" value="forgot password logic" style="rounded=0;whiteSpace=wrap;html=1;strokeColor=none;strokeWidth=4;" vertex="1" parent="1">
                    <mxGeometry x="-842.28" y="1025" width="94.56" height="60" as="geometry"/>
                </mxCell>
            </root>
        </mxGraphModel>
    </diagram>
</mxfile>